<svg xmlns="http://www.w3.org/2000/svg" viewBox="0 0 254 134">
	<path fill="#ffc815" fill-rule="evenodd" d="M-.012 126.931a125.713 125.713 0 0149.176-99.64L84.006 69.64c-18.658 14.64-28.428 31.948-28.428 57.291H-.012z"/>
	<path fill="#a3cd3b" fill-rule="evenodd" d="M55.124 22.992a127.058 127.058 0 01145.817 0l-34.518 43.039c-14.684-9.917-26.3-12.2-38.387-12.2-12.056 0-26.188 4.358-38.352 12.2z"/>
	<path fill="#0093d7" fill-rule="evenodd" d="M205.248 27.291a126.875 126.875 0 0147.792 99.64h-53.987c0-25.343-10.4-43.4-27.486-57.291z"/>
	<path fill="#3e3d40" fill-rule="evenodd" d="M137.657 128.889a9.154 9.154 0 01-12.791 2.581L83.835 94.031l51.311 21.9a9.428 9.428 0 012.511 12.954z" class="meter-arrow"/>
</svg>
